<?xml version="1.0" encoding="utf-8"?>
<!-- Generator: Adobe Illustrator 21.0.0, SVG Export Plug-In . SVG Version: 6.00 Build 0)  -->
<svg version="1.1" id="Layer_1" xmlns="http://www.w3.org/2000/svg" xmlns:xlink="http://www.w3.org/1999/xlink" x="0px" y="0px"
	 viewBox="0 0 512 512" style="enable-background:new 0 0 512 512;" xml:space="preserve">
<style type="text/css">
	.st0{fill:#FFFFFF;}
</style>
<g>
	<path class="st0" d="M272.5,66.3V5.1h-32.2v61.1C147.6,74,73.7,148,65.9,240.6H4.8v32.2h61.1c7.8,92.6,81.7,166.5,174.3,174.3v61.1
		h32.2v-61.1c92.6-7.8,166.6-81.7,174.3-174.3h61.1v-32.2h-61.1C439,148,365.1,74,272.5,66.3z M272.5,414.9v-48.7h-32.2v48.7
		c-74.8-7.6-134.5-67.2-142.1-142.1h48.7v-32.2H98.2c7.6-74.9,67.2-134.5,142.1-142.1v48.8h32.2V98.5
		c74.9,7.6,134.5,67.3,142.1,142.1h-48.7v32.2h48.7C407,347.7,347.3,407.3,272.5,414.9z"/>
</g>
</svg>
